Coordinates
version=1
nRows=7
nColumns=40
inDegrees=yes

Units are S.I. units (second, meters, Newtons, ...)
If the header above contains a line with 'inDegrees', this indicates whether rotational values are in degrees (yes) or radians (no).

endheader
time	pelvis_tilt	pelvis_list	pelvis_rotation	pelvis_tx	pelvis_ty	pelvis_tz	hip_flexion_r	hip_adduction_r	hip_rotation_r	knee_angle_r	knee_angle_r_beta	ankle_angle_r	subtalar_angle_r	mtp_angle_r	hip_flexion_l	hip_adduction_l	hip_rotation_l	knee_angle_l	knee_angle_l_beta	ankle_angle_l	subtalar_angle_l	mtp_angle_l	lumbar_extension	lumbar_bending	lumbar_rotation	arm_flex_r	arm_add_r	arm_rot_r	elbow_flex_r	pro_sup_r	wrist_flex_r	wrist_dev_r	arm_flex_l	arm_add_l	arm_rot_l	elbow_flex_l	pro_sup_l	wrist_flex_l	wrist_dev_l
      6.00000000	     87.40077292	     28.98479716	     87.32456360	      0.43172304	      0.61583769	      0.66837753	    112.85221834	     -7.25806855	      0.90750361	     54.66182970	      0.95402890	      6.13525576	      0.00000000	      0.00000000	    112.15725521	    -19.70698230	     -0.71186948	     55.68619947	      0.97190753	      8.49055513	      0.00000000	      0.00000000	    -17.74518800	    -13.40928810	      7.56518041	     56.65156912	    -21.20716290	     39.58099254	     22.37558896	     72.05649156	      0.00000000	      0.00000000	     63.23211738	     -8.04634756	     29.21646894	     20.31365322	     57.75219259	      0.00000000	      0.00000000
      6.00500000	     87.36772459	     29.05026518	     87.34392318	      0.43198557	      0.61592965	      0.66676175	    113.08464714	     -7.21358952	      1.07809092	     55.07872220	      0.96130505	      6.36306076	      0.00000000	      0.00000000	    112.38640871	    -19.74465555	     -0.63392017	     56.09425153	      0.97902938	      8.68540115	      0.00000000	      0.00000000	    -17.52817801	    -13.42171934	      7.57461239	     56.16830658	    -21.02274579	     38.64796940	     22.65720404	     69.65263529	      0.00000000	      0.00000000	     62.96320952	     -7.94724802	     28.61480650	     20.37556907	     56.16568220	      0.00000000	      0.00000000
      6.01000000	     87.41718286	     29.46119609	     87.51422689	      0.43169576	      0.61564842	      0.66569284	    113.01680718	     -7.48221056	      1.07431078	     55.67759657	      0.97175738	      6.58366762	      0.00000000	      0.00000000	    112.22850242	    -19.59017738	     -0.61777680	     56.53151118	      0.98666100	      8.86585097	      0.00000000	      0.00000000	    -17.78421619	    -13.29610181	      7.40223224	     55.78745347	    -20.50673947	     36.88508811	     22.61565112	     65.59360309	      0.00000000	      0.00000000	     62.75709569	     -7.57722648	     27.33247445	     20.37309408	     53.12588123	      0.00000000	      0.00000000
      6.01500000	     87.36907118	     29.40630622	     87.34878630	      0.43215040	      0.61603401	      0.66389294	    113.32757590	     -7.20183917	      1.23327750	     56.00247029	      0.97742750	      6.83624896	      0.00000000	      0.00000000	    112.64580227	    -19.83302772	     -0.45523587	     57.00624503	      0.99494667	      9.11270399	      0.00000000	      0.00000000	    -17.38207518	    -13.36626150	      7.63896255	     55.30505554	    -20.46274074	     36.13442205	     23.06360636	     64.00079666	      0.00000000	      0.00000000	     62.39984052	     -7.56802492	     26.82506302	     20.67963546	     52.11562268	      0.00000000	      0.00000000
      6.02000000	     87.39297702	     29.80500441	     87.49693184	      0.43195649	      0.61574982	      0.66282584	    113.24643084	     -7.40007555	      1.30203845	     56.51671314	      0.98640273	      7.01861877	      0.00000000	      0.00000000	    112.50173461	    -19.74395359	     -0.50873551	     57.42486534	      1.00225297	      9.22818879	      0.00000000	      0.00000000	    -17.61401757	    -13.26900543	      7.46529060	     57.09732143	    -22.26117836	     45.58889925	     22.59818644	     76.43013774	      0.00000000	      0.00000000	     62.43146099	     -8.18336080	     29.23479518	     20.77809294	     53.20907387	      0.00000000	      0.00000000
      6.02500000	     87.26011602	     29.77665710	     87.18945966	      0.43239102	      0.61657435	      0.66126064	    113.47097631	     -6.87353977	      1.51572084	     56.70279584	      0.98965048	      7.03067129	      0.00000000	      0.00000000	    112.88335223	    -20.21860587	     -0.36733989	     57.90116463	      1.01056596	      9.34888196	      0.00000000	      0.00000000	    -17.21920886	    -13.48446608	      7.88388958	     55.87316771	    -21.36113820	     40.99893729	     22.86058306	     68.42768241	      0.00000000	      0.00000000	     62.14519618	     -7.65721584	     27.34400783	     20.80736526	     50.65854236	      0.00000000	      0.00000000
      6.03000000	     87.41716960	     30.22831865	     87.49509260	      0.43209480	      0.61579764	      0.66023946	    113.37494361	     -7.39901276	      1.44025051	     57.35188767	      1.00097927	      7.33435112	      0.00000000	      0.00000000	    112.66243898	    -19.81567442	     -0.33501741	     58.26706241	      1.01695208	      9.52550319	      0.00000000	      0.00000000	    -17.56641119	    -13.19600925	      7.50045406	     56.88267408	    -22.20038556	     45.56079233	     22.51919998	     77.45330124	      0.00000000	      0.00000000	     62.13862815	     -8.19452331	     29.23826415	     20.82138678	     52.08720318	      0.00000000	      0.00000000
